<?xml version="1.0" encoding="utf-8"?>
<!-- Generator: Adobe Illustrator 18.0.0, SVG Export Plug-In . SVG Version: 6.00 Build 0)  -->
<!DOCTYPE svg PUBLIC "-//W3C//DTD SVG 1.1//EN" "http://www.w3.org/Graphics/SVG/1.1/DTD/svg11.dtd">
<svg version="1.1"
	 id="Layer_1" xmlns:rdf="http://www.w3.org/1999/02/22-rdf-syntax-ns#" xmlns:cc="http://creativecommons.org/ns#" xmlns:dc="http://purl.org/dc/elements/1.1/"
	 xmlns="http://www.w3.org/2000/svg" xmlns:xlink="http://www.w3.org/1999/xlink" x="0px" y="0px" viewBox="0 0 252 120"
	 enable-background="new 0 0 252 120" xml:space="preserve">
<g>
	<g>
		<path fill="#FFFFFF" d="M145.7,49.2c0,1.1-1.1,1.5-3.1,1.5h-2.6v-3.1h3.1C144.6,47.6,145.7,48.1,145.7,49.2 M152.3,56.2
			c0-1.2-0.2-2-0.6-2.6h0l0,0c0,0,0,0,0,0h0l-0.5-0.5c-0.6-0.5-1.5-0.7-2.5-1c2.4-0.5,3.5-2,3.5-3.8c0-3-2.3-4.4-9.3-4.4H133v15.4
			h6.9l0-5.4h2.1c3.2,0,3.7,0.7,3.7,2.7c0,1.4,0,2.3,0,2.7h6.6C152.3,59.4,152.3,58.3,152.3,56.2z"/>
		<polygon fill="#FFFFFF" points="161.9,59.4 161.9,44 155.1,44 155,59.4 		"/>
		<g>
			<path fill="#FFFFFF" d="M58.1,64.8c-0.1-0.7-0.7-1.3-2-1.3c-1.1,0-2,0.4-2,1.3c0,1.5,2.6,1.1,2.6,1.7c0,0.2-0.2,0.3-0.6,0.3
				c-0.1,0-0.3,0-0.4-0.1c-0.1-0.1-0.2-0.2-0.2-0.3H54c0,0.7,0.8,1.3,2,1.3c1.3,0,2.1-0.5,2.1-1.4c0-1.5-2.6-1.1-2.6-1.7
				c0-0.1,0.1-0.2,0.5-0.2c0.1,0,0.3,0,0.4,0.1c0.1,0.1,0.2,0.1,0.2,0.3H58.1z"/>
			<rect x="59" y="63.5" fill="#FFFFFF" width="1.6" height="4.2"/>
			<polygon fill="#FFFFFF" points="63,63.5 61.5,63.5 61.5,67.8 63.1,67.8 63.1,66.4 63,65.5 64.7,67.8 66.2,67.8 66.2,63.5 
				64.7,63.5 64.7,64.9 64.7,65.8 			"/>
			<path fill="#FFFFFF" d="M71.4,65.2c-0.1-1-0.9-1.6-2.3-1.6c-1.3,0-2.3,0.8-2.3,2.1c0,1.3,0.9,2.1,2.4,2.1c1.2,0,2-0.6,2.2-1.7H70
				c-0.1,0.4-0.3,0.7-0.8,0.7c-0.8,0-0.9-0.5-0.9-1.1c0-0.8,0.3-1.2,0.8-1.2c0.5,0,0.8,0.2,0.8,0.7H71.4z"/>
			<polygon fill="#FFFFFF" points="76.2,67.8 76.2,66.8 73.7,66.8 73.7,66.1 75.7,66.1 75.7,65.1 73.7,65.1 73.7,64.5 76.1,64.5 
				76.1,63.5 72.2,63.5 72.2,67.8 			"/>
			<path fill="#FFFFFF" d="M82.8,63.5h-1.1c-0.2,0.7-0.7,0.9-1.4,1v0.8h1.1v2.4h1.4V63.5z"/>
			<path fill="#FFFFFF" d="M83.6,66.7c0.2,0.8,1,1.1,1.9,1.1c1.3,0,2-0.8,2-2.1c0-1.5-0.8-2.1-2.2-2.1c-1,0-1.9,0.4-1.9,1.4
				c0,0.6,0.5,1.3,1.6,1.3c0.4,0,0.7-0.1,1.1-0.3c0,0.5-0.2,0.9-0.7,0.9c-0.3,0-0.5-0.1-0.6-0.3L83.6,66.7z M85.4,65.5
				c-0.3,0-0.6-0.2-0.6-0.5c0-0.3,0.2-0.6,0.6-0.6c0.3,0,0.6,0.2,0.6,0.5C86.1,65.2,85.9,65.5,85.4,65.5"/>
			<path fill="#FFFFFF" d="M92.2,67.8v-1H90c0.2-0.2,0.6-0.3,1-0.5c0.6-0.3,1.3-0.6,1.3-1.4c0-1-0.9-1.3-1.9-1.3c-1.2,0-2,0.5-2,1.7
				h1.3c0-0.4,0.1-0.8,0.7-0.8c0.3,0,0.6,0.2,0.6,0.4c0,0.7-1.2,1-2,1.7c-0.4,0.3-0.6,0.7-0.6,1.2H92.2z"/>
			<path fill="#FFFFFF" d="M93,65.6c0,1.2,0.5,2.2,2,2.2c1.5,0,2-1,2-2.2c0-1.3-0.8-2-2-2C93.9,63.5,93,64.1,93,65.6 M95,66.9
				c-0.5,0-0.6-0.5-0.6-1.2c0-0.4,0-1.2,0.6-1.2c0.7,0,0.7,0.8,0.7,1.2C95.6,66.3,95.5,66.9,95,66.9"/>
		</g>
		<path fill="#FFFFFF" d="M179.5,51.7c0,2.2-1.2,4.1-4,4.1c-2.7,0-4-1.8-4-4.1c0-2.2,1.3-4.1,4-4.1
			C178.1,47.6,179.5,49.4,179.5,51.7 M186.1,51.6c0-3.9-3.4-7.6-10.7-7.6c-6.4,0-10.7,3-10.7,7.6c0,0.7,0.1,1.4,0.2,2v0
			c1,3.7,4.9,5.8,10.4,5.8c5.2,0,9.4-2.1,10.5-5.8h0C186,53,186.1,52.3,186.1,51.6"/>
		<rect x="70.9" y="55" fill="#FFFFFF" width="6.2" height="4.4"/>
		<polygon fill="#FFFFFF" points="202.1,48.1 208.2,48.1 208.2,44 189,44 189,48.1 195.2,48.1 195.2,59.4 202,59.4 		"/>
		<polygon fill="#FFFFFF" points="224.1,48.1 230.3,48.1 230.3,44 211,44 211,48.1 217.2,48.1 217.2,59.4 224.1,59.4 		"/>
		<rect x="233" y="44" fill="#FFFFFF" width="6.8" height="15.4"/>
		<polygon fill="#FFFFFF" points="62.3,53.9 70.4,35.6 239.8,35.6 239.8,39.9 74.7,39.9 65.8,59.4 58.7,59.4 47.9,35.6 54.1,35.6 		
			"/>
		<polygon fill="#FFFFFF" points="99.8,67.8 239.8,67.8 239.8,63.6 105.6,63.6 105.6,44 97.3,44 93.5,53.6 89.9,44 81.6,44 
			81.6,59.4 87.4,59.4 87.4,54.1 87.4,49.5 91.1,59.4 95.9,59.4 99.8,49.5 		"/>
		<path fill="#FFFFFF" d="M172.9,53.7"/>
		<path fill="#FFFFFF" d="M165.9,53.7"/>
		<path fill="#FFFFFF" d="M108.3,59.4L108.3,59.4L108.3,59.4L108.3,59.4z M121.4,54.2H117l2.1-5.5L121.4,54.2z M130.3,59.4L122.8,44
			l-7.2,0l-7.3,15.4h6.6l0.8-2h6.8l0.9,2H130.3z"/>
		<path fill="#FFFFFF" d="M149.4,51.5"/>
	</g>
	<polygon fill="#FFFFFF" points="10.2,69.4 4.3,69.4 1,66 4.3,62.7 13,62.7 24.3,74 36.3,61.9 27.6,53.2 27.6,61.4 24.3,64.6 
		20.9,61.4 20.9,39 24.3,35.7 27.6,39 27.6,43.7 45.8,61.9 24.3,83.5 	"/>
	<g>
		<g>
			<path fill="#FFFFFF" d="M246.3,37.6h1.5c0.8,0,1,0.6,1,0.9c0,0.3-0.2,0.6-0.5,0.7c0.2,0.1,0.4,0.2,0.4,0.8c0,0.4,0,0.6,0.1,0.6
				v0.1h-0.7c0-0.1-0.1-0.3-0.1-0.6c0-0.4,0-0.6-0.5-0.6h-0.7v1.2h-0.6V37.6z M247.6,38.9c0.3,0,0.5-0.1,0.5-0.4
				c0-0.2-0.1-0.4-0.4-0.4h-0.8v0.8H247.6z"/>
		</g>
		<g>
			<path fill="#FFFFFF" d="M247.5,42.6c-1.9,0-3.5-1.6-3.5-3.5s1.6-3.5,3.5-3.5c1.9,0,3.5,1.6,3.5,3.5S249.4,42.6,247.5,42.6z
				 M247.5,36.4c-1.5,0-2.8,1.2-2.8,2.8c0,1.5,1.2,2.8,2.8,2.8s2.8-1.2,2.8-2.8C250.3,37.6,249.1,36.4,247.5,36.4z"/>
		</g>
	</g>
	<g>
		<path fill="#FFFFFF" d="M59.9,78c-0.3-1.4-1.4-1.6-2.2-1.6c-1.4,0-2.5,1-2.5,3.1c0,1.8,0.6,3.2,2.6,3.2c0.7,0,1.9-0.3,2.2-2.1h1
			c-0.4,2.9-2.8,3.1-3.4,3.1c-1.8,0-3.5-1.1-3.5-4.1c0-2.4,1.4-4,3.6-4c2,0,3,1.2,3.2,2.5H59.9z"/>
		<path fill="#FFFFFF" d="M66.2,83.6c-2.9,0-3.8-2.4-3.8-4.1c0-1.7,0.9-4.1,3.8-4.1c2.9,0,3.8,2.4,3.8,4.1
			C70,81.2,69.1,83.6,66.2,83.6z M66.2,76.3c-1.7,0-2.7,1.3-2.7,3.2c0,1.8,1,3.2,2.7,3.2c1.7,0,2.7-1.3,2.7-3.2
			C68.9,77.7,67.9,76.3,66.2,76.3z"/>
		<path fill="#FFFFFF" d="M78.1,83.4v-4.6c0-0.2,0-1.2,0-1.9h0l-2.2,6.5h-1l-2.2-6.5h0c0,0.7,0,1.7,0,1.9v4.6h-1v-7.8h1.5l2.2,6.6h0
			l2.2-6.6h1.5v7.8H78.1z"/>
		<path fill="#FFFFFF" d="M82.4,83.4h-1v-7.8h3.5c1.4,0,2.3,0.9,2.3,2.2c0,1.1-0.6,2.3-2.3,2.3h-2.4V83.4z M82.4,79.2h2.1
			c0.9,0,1.6-0.3,1.6-1.4c0-1-0.7-1.3-1.5-1.3h-2.1V79.2z"/>
		<path fill="#FFFFFF" d="M88.9,81.1l-0.8,2.3H87l2.9-7.8h1.2l2.8,7.8h-1.1L92,81.1H88.9z M91.7,80.2l-1.1-3.4h0l-1.2,3.4H91.7z"/>
		<path fill="#FFFFFF" d="M100.6,78c-0.3-1.4-1.4-1.6-2.2-1.6c-1.4,0-2.5,1-2.5,3.1c0,1.8,0.6,3.2,2.6,3.2c0.7,0,1.9-0.3,2.2-2.1h1
			c-0.4,2.9-2.8,3.1-3.4,3.1c-1.8,0-3.5-1.1-3.5-4.1c0-2.4,1.4-4,3.6-4c2,0,3,1.2,3.2,2.5H100.6z"/>
		<path fill="#FFFFFF" d="M102.8,75.6h6.3v0.9h-2.6v6.8h-1v-6.8h-2.6V75.6z"/>
		<path fill="#FFFFFF" d="M115.3,83.4h-1v-7.8h5.4v0.9h-4.3v2.4h3.8v0.9h-3.8V83.4z"/>
		<path fill="#FFFFFF" d="M124.7,83.6c-2.9,0-3.8-2.4-3.8-4.1c0-1.7,0.9-4.1,3.8-4.1c2.9,0,3.8,2.4,3.8,4.1
			C128.5,81.2,127.6,83.6,124.7,83.6z M124.7,76.3c-1.7,0-2.7,1.3-2.7,3.2c0,1.8,1,3.2,2.7,3.2c1.7,0,2.7-1.3,2.7-3.2
			C127.4,77.7,126.4,76.3,124.7,76.3z"/>
		<path fill="#FFFFFF" d="M131.4,83.4h-1v-7.8h3.6c1.3,0,2.5,0.4,2.5,2.1c0,1.1-0.6,1.6-1.1,1.9c0.4,0.2,0.9,0.4,0.9,1.5l0.1,1.4
			c0,0.4,0.1,0.6,0.4,0.8v0.2h-1.3c-0.2-0.5-0.2-1.7-0.2-1.9c0-0.6-0.1-1.4-1.4-1.4h-2.5V83.4z M131.4,79.2h2.4
			c0.8,0,1.6-0.2,1.6-1.3c0-1.2-0.9-1.3-1.4-1.3h-2.6V79.2z"/>
		<path fill="#FFFFFF" d="M139.6,83.4h-1v-7.8h1v3.8l3.8-3.8h1.4l-3.2,3.1l3.3,4.6h-1.4l-2.7-3.9l-1.2,1.2V83.4z"/>
		<path fill="#FFFFFF" d="M147.4,82.5h3.9v0.9h-5v-7.8h1V82.5z"/>
		<path fill="#FFFFFF" d="M154.1,83.4h-1v-7.8h1V83.4z"/>
		<path fill="#FFFFFF" d="M157.6,83.4h-1v-7.8h5.4v0.9h-4.3v2.4h3.8v0.9h-3.8V83.4z"/>
		<path fill="#FFFFFF" d="M163.1,75.6h6.3v0.9h-2.6v6.8h-1v-6.8h-2.6V75.6z"/>
		<path fill="#FFFFFF" d="M179.1,77.9c-0.1-1.2-1-1.6-1.9-1.6c-0.7,0-1.8,0.2-1.8,1.4c0,0.7,0.5,0.9,0.9,1l2.2,0.5
			c1,0.2,1.8,0.8,1.8,2.1c0,1.8-1.7,2.3-3,2.3c-1.4,0-2-0.4-2.3-0.7c-0.7-0.6-0.8-1.2-0.8-2h1c0,1.4,1.1,1.8,2.1,1.8
			c0.8,0,2-0.2,2-1.3c0-0.8-0.4-1.1-1.7-1.4l-1.6-0.4c-0.5-0.1-1.7-0.5-1.7-1.8c0-1.2,0.8-2.4,2.7-2.4c2.7,0,3,1.6,3,2.5H179.1z"/>
		<path fill="#FFFFFF" d="M185.6,83.6c-2.9,0-3.8-2.4-3.8-4.1c0-1.7,0.9-4.1,3.8-4.1c2.9,0,3.8,2.4,3.8,4.1
			C189.3,81.2,188.5,83.6,185.6,83.6z M185.6,76.3c-1.7,0-2.7,1.3-2.7,3.2c0,1.8,1,3.2,2.7,3.2c1.7,0,2.7-1.3,2.7-3.2
			C188.3,77.7,187.2,76.3,185.6,76.3z"/>
		<path fill="#FFFFFF" d="M192.2,82.5h3.9v0.9h-5v-7.8h1V82.5z"/>
		<path fill="#FFFFFF" d="M203.8,75.6v5c0,1.6-1,2.9-3.1,2.9c-2.1,0-3-1.3-3-2.8v-5.2h1v4.9c0,1.7,1,2.1,2,2.1c1,0,2-0.4,2-2.1v-4.9
			H203.8z"/>
		<path fill="#FFFFFF" d="M205.3,75.6h6.3v0.9H209v6.8h-1v-6.8h-2.6V75.6z"/>
		<path fill="#FFFFFF" d="M214.3,83.4h-1v-7.8h1V83.4z"/>
		<path fill="#FFFFFF" d="M220.1,83.6c-2.9,0-3.8-2.4-3.8-4.1c0-1.7,0.9-4.1,3.8-4.1c2.9,0,3.8,2.4,3.8,4.1
			C223.8,81.2,223,83.6,220.1,83.6z M220.1,76.3c-1.7,0-2.7,1.3-2.7,3.2c0,1.8,1,3.2,2.7,3.2c1.7,0,2.7-1.3,2.7-3.2
			C222.8,77.7,221.7,76.3,220.1,76.3z"/>
		<path fill="#FFFFFF" d="M230.8,75.6h1v7.8h-1.2l-3.9-6.3h0v6.3h-1v-7.8h1.2l3.9,6.3h0V75.6z"/>
		<path fill="#FFFFFF" d="M238.6,77.9c-0.1-1.2-1-1.6-1.9-1.6c-0.7,0-1.8,0.2-1.8,1.4c0,0.7,0.5,0.9,0.9,1l2.2,0.5
			c1,0.2,1.8,0.8,1.8,2.1c0,1.8-1.7,2.3-3,2.3c-1.4,0-2-0.4-2.3-0.7c-0.7-0.6-0.8-1.2-0.8-2h1c0,1.4,1.1,1.8,2.1,1.8
			c0.8,0,2-0.2,2-1.3c0-0.8-0.4-1.1-1.7-1.4l-1.6-0.4c-0.5-0.1-1.7-0.5-1.7-1.8c0-1.2,0.8-2.4,2.7-2.4c2.7,0,3,1.6,3,2.5H238.6z"/>
	</g>
</g>
</svg>
