<?xml version="1.0" encoding="utf-8"?>
<!-- Generator: Adobe Illustrator 18.0.0, SVG Export Plug-In . SVG Version: 6.00 Build 0)  -->
<!DOCTYPE svg PUBLIC "-//W3C//DTD SVG 1.1//EN" "http://www.w3.org/Graphics/SVG/1.1/DTD/svg11.dtd">
<svg version="1.1"
	 id="Layer_1" xmlns:rdf="http://www.w3.org/1999/02/22-rdf-syntax-ns#" xmlns:cc="http://creativecommons.org/ns#" xmlns:dc="http://purl.org/dc/elements/1.1/"
	 xmlns="http://www.w3.org/2000/svg" xmlns:xlink="http://www.w3.org/1999/xlink" x="0px" y="0px" viewBox="0 0 128 128"
	 enable-background="new 0 0 128 128" xml:space="preserve">
<path fill="#E1001A" d="M20,0h88c11,0,20,9,20,20v88c0,11-9,20-20,20H20c-11,0-20-9-20-20V20C0,9,9,0,20,0z"/>
<polygon fill="#FFFFFF" points="37.5,83.6 25.7,83.6 19,76.9 25.7,70.2 43.1,70.2 65.7,92.8 89.9,68.6 72.5,51.2 72.5,67.5 
	65.7,74.1 59,67.5 59,22.7 65.7,16.1 72.5,22.7 72.5,32.1 109,68.6 65.7,111.9 "/>
</svg>
