<?xml version="1.0" encoding="utf-8"?>
<!-- Generator: Adobe Illustrator 16.0.0, SVG Export Plug-In . SVG Version: 6.00 Build 0)  -->
<!DOCTYPE svg PUBLIC "-//W3C//DTD SVG 1.1//EN" "http://www.w3.org/Graphics/SVG/1.1/DTD/svg11.dtd">
<svg version="1.1"
	 id="Layer_1" xmlns:rdf="http://www.w3.org/1999/02/22-rdf-syntax-ns#" xmlns:cc="http://creativecommons.org/ns#" xmlns:dc="http://purl.org/dc/elements/1.1/"
	 xmlns="http://www.w3.org/2000/svg" xmlns:xlink="http://www.w3.org/1999/xlink" x="0px" y="0px" width="1017.752px"
	 height="543.055px" viewBox="-405.752 284.309 1017.752 543.055" enable-background="new -405.752 284.309 1017.752 543.055"
	 xml:space="preserve">
<g>
	<g>
		<path fill="#FFFFFF" d="M182.647,513.652c0,4.44-4.439,6.055-12.513,6.055h-10.496v-12.514h12.514
			C178.208,507.193,182.647,509.212,182.647,513.652 M209.29,541.909c0-4.844-0.807-8.073-2.422-10.495l0,0l0,0l0,0l0,0
			l-2.018-2.019c-2.422-2.019-6.056-2.825-10.092-4.036c9.688-2.019,14.129-8.074,14.129-15.34c0-12.11-9.285-17.762-37.542-17.762
			h-39.964v62.165h27.853v-21.798h8.479c12.917,0,14.935,2.826,14.935,10.898c0,5.652,0,9.285,0,10.899h26.642
			C209.29,554.827,209.29,550.387,209.29,541.909z"/>
		<polygon fill="#FFFFFF" points="248.042,554.827 248.042,492.662 220.594,492.662 220.189,554.827 		"/>
		<g>
			<path fill="#FFFFFF" d="M-170.97,576.625c-0.404-2.825-2.826-5.247-8.074-5.247c-4.44,0-8.073,1.614-8.073,5.247
				c0,6.055,10.496,4.44,10.496,6.862c0,0.808-0.808,1.21-2.423,1.21c-0.403,0-1.211,0-1.614-0.402
				c-0.404-0.404-0.808-0.808-0.808-1.211h-6.055c0,2.824,3.229,5.248,8.073,5.248c5.248,0,8.478-2.018,8.478-5.652
				c0-6.055-10.496-4.439-10.496-6.861c0-0.404,0.403-0.808,2.019-0.808c0.403,0,1.211,0,1.615,0.403
				c0.403,0.404,0.807,0.404,0.807,1.211H-170.97z"/>
			<rect x="-167.337" y="571.378" fill="#FFFFFF" width="6.459" height="16.954"/>
			<polygon fill="#FFFFFF" points="-151.19,571.378 -157.246,571.378 -157.246,588.736 -150.787,588.736 -150.787,583.084 
				-151.19,579.451 -144.328,588.736 -138.272,588.736 -138.272,571.378 -144.328,571.378 -144.328,577.029 -144.328,580.662 			"/>
			<path fill="#FFFFFF" d="M-117.282,578.24c-0.403-4.037-3.633-6.46-9.284-6.46c-5.248,0-9.285,3.23-9.285,8.478
				c0,5.248,3.633,8.479,9.688,8.479c4.844,0,8.073-2.422,8.881-6.863h-5.651c-0.403,1.614-1.211,2.824-3.229,2.824
				c-3.229,0-3.633-2.018-3.633-4.439c0-3.229,1.211-4.844,3.229-4.844c2.018,0,3.229,0.808,3.229,2.826H-117.282z"/>
			<polygon fill="#FFFFFF" points="-97.905,588.736 -97.905,584.697 -107.997,584.697 -107.997,581.873 -99.924,581.873 
				-99.924,577.836 -107.997,577.836 -107.997,575.414 -98.309,575.414 -98.309,571.378 -114.052,571.378 -114.052,588.736 			"/>
			<path fill="#FFFFFF" d="M-71.262,571.378h-4.441c-0.807,2.825-2.825,3.633-5.651,4.036v3.229h4.44v9.688h5.652V571.378z"/>
			<path fill="#FFFFFF" d="M-68.034,584.295c0.808,3.23,4.037,4.441,7.67,4.441c5.247,0,8.073-3.23,8.073-8.479
				c0-6.055-3.229-8.478-8.881-8.478c-4.037,0-7.669,1.616-7.669,5.652c0,2.422,2.018,5.247,6.458,5.247
				c1.614,0,2.825-0.403,4.44-1.211c0,2.019-0.808,3.635-2.826,3.635c-1.211,0-2.019-0.406-2.422-1.213L-68.034,584.295z
				 M-60.768,579.451c-1.211,0-2.422-0.808-2.422-2.019s0.808-2.422,2.422-2.422c1.211,0,2.422,0.808,2.422,2.019
				C-57.941,578.24-58.749,579.451-60.768,579.451"/>
			<path fill="#FFFFFF" d="M-33.318,588.736v-4.039h-8.881c0.808-0.807,2.422-1.21,4.037-2.018c2.422-1.211,5.248-2.422,5.248-5.65
				c0-4.037-3.633-5.249-7.67-5.249c-4.845,0-8.074,2.02-8.074,6.863h5.248c0-1.614,0.404-3.229,2.826-3.229
				c1.211,0,2.422,0.808,2.422,1.615c0,2.825-4.844,4.036-8.073,6.861c-1.615,1.213-2.422,2.826-2.422,4.846H-33.318
				L-33.318,588.736z"/>
			<path fill="#FFFFFF" d="M-30.088,579.854c0,4.843,2.019,8.882,8.074,8.882c6.055,0,8.073-4.039,8.073-8.882
				c0-5.247-3.229-8.074-8.073-8.074C-26.455,571.378-30.088,573.8-30.088,579.854 M-22.015,585.104
				c-2.019,0-2.422-2.02-2.422-4.846c0-1.614,0-4.844,2.422-4.844c2.825,0,2.825,3.229,2.825,4.844
				C-19.593,582.68-19.996,585.104-22.015,585.104"/>
		</g>
		<path fill="#FFFFFF" d="M319.09,523.744c0,8.881-4.844,16.551-16.148,16.551c-10.898,0-16.146-7.266-16.146-16.551
			c0-8.881,5.248-16.551,16.146-16.551C313.438,507.193,319.09,514.46,319.09,523.744 M345.732,523.341
			c0-15.743-13.725-30.679-43.193-30.679c-25.835,0-43.194,12.109-43.194,30.679c0,2.825,0.404,5.651,0.808,8.073l0,0
			c4.037,14.936,19.779,23.413,41.981,23.413c20.992,0,37.945-8.478,42.387-23.413l0,0
			C345.328,528.992,345.732,526.166,345.732,523.341"/>
		<rect x="-119.3" y="537.065" fill="#FFFFFF" width="25.028" height="17.762"/>
		<polygon fill="#FFFFFF" points="410.32,509.212 434.943,509.212 434.943,492.662 357.438,492.662 357.438,509.212 
			382.465,509.212 382.465,554.827 409.916,554.827 		"/>
		<polygon fill="#FFFFFF" points="499.129,509.212 524.154,509.212 524.154,492.662 446.246,492.662 446.246,509.212 
			471.273,509.212 471.273,554.827 499.129,554.827 		"/>
		<rect x="535.055" y="492.662" fill="#FFFFFF" width="27.449" height="62.165"/>
		<polygon fill="#FFFFFF" points="-154.016,532.625 -121.318,458.753 562.504,458.753 562.504,476.11 -103.961,476.11 
			-139.888,554.827 -168.548,554.827 -212.145,458.753 -187.117,458.753 		"/>
		<polygon fill="#FFFFFF" points="-2.638,588.736 562.504,588.736 562.504,571.78 20.774,571.78 20.774,492.662 -12.73,492.662 
			-28.07,531.414 -42.602,492.662 -76.107,492.662 -76.107,554.827 -52.693,554.827 -52.693,533.433 -52.693,514.863 
			-37.758,554.827 -18.382,554.827 -2.638,514.863 		"/>
		<path fill="#FFFFFF" d="M292.447,531.818"/>
		<path fill="#FFFFFF" d="M264.19,531.818"/>
		<path fill="#FFFFFF" d="M31.674,554.827L31.674,554.827L31.674,554.827L31.674,554.827z M84.555,533.836H66.794l8.476-22.202
			L84.555,533.836z M120.483,554.827l-30.276-62.165H61.142l-29.468,62.165h26.643l3.229-8.074h27.45l3.633,8.074H120.483z"/>
		<path fill="#FFFFFF" d="M197.583,522.937"/>
	</g>
	<polygon fill="#FFFFFF" points="-364.33,595.193 -388.146,595.193 -401.467,581.469 -388.146,568.147 -353.027,568.147 
		-307.412,613.764 -258.971,564.919 -294.09,529.8 -294.09,562.901 -307.412,575.818 -321.136,562.901 -321.136,472.478 
		-307.412,459.157 -294.09,472.478 -294.09,491.45 -220.622,564.919 -307.412,652.112 	"/>
	<g>
		<g>
			<path fill="#FFFFFF" d="M588.742,466.826h6.055c3.23,0,4.037,2.422,4.037,3.633s-0.807,2.422-2.018,2.826
				c0.807,0.403,1.613,0.808,1.613,3.229c0,1.614,0,2.422,0.404,2.422v0.403h-2.826c0-0.403-0.402-1.211-0.402-2.422
				c0-1.614,0-2.422-2.02-2.422h-2.824v4.844h-2.422v-12.514H588.742z M593.99,472.074c1.211,0,2.018-0.404,2.018-1.615
				c0-0.808-0.402-1.614-1.613-1.614h-3.23v3.229H593.99z"/>
		</g>
		<g>
			<path fill="#FFFFFF" d="M593.586,487.01c-7.668,0-14.127-6.459-14.127-14.129c0-7.669,6.459-14.128,14.127-14.128
				c7.67,0,14.129,6.459,14.129,14.128C607.715,480.551,601.256,487.01,593.586,487.01z M593.586,461.982
				c-6.055,0-11.301,4.844-11.301,11.303c0,6.055,4.844,11.303,11.301,11.303c6.459,0,11.303-4.844,11.303-11.303
				S600.045,461.982,593.586,461.982z"/>
		</g>
	</g>
	<g>
		<path fill="#FFFFFF" d="M-163.704,629.909c-1.212-5.65-5.652-6.458-8.881-6.458c-5.651,0-10.092,4.036-10.092,12.515
			c0,7.266,2.422,12.918,10.496,12.918c2.825,0,7.669-1.211,8.88-8.479h4.037c-1.615,11.707-11.303,12.514-13.725,12.514
			c-7.267,0-14.129-4.439-14.129-16.551c0-9.688,5.651-16.146,14.532-16.146c8.074,0,12.11,4.844,12.917,10.092h-4.036V629.909z"/>
		<path fill="#FFFFFF" d="M-138.272,652.517c-11.707,0-15.339-9.689-15.339-16.551c0-6.863,3.633-16.551,15.339-16.551
			s15.339,9.688,15.339,16.551C-122.933,642.827-126.566,652.517-138.272,652.517z M-138.272,623.048
			c-6.862,0-10.899,5.248-10.899,12.918c0,7.266,4.037,12.918,10.899,12.918s10.899-5.248,10.899-12.918
			C-127.374,628.698-131.41,623.048-138.272,623.048z"/>
		<path fill="#FFFFFF" d="M-90.235,651.708V633.14c0-0.807,0-4.844,0-7.67l0,0l-8.881,26.238h-4.037l-8.88-26.238l0,0
			c0,2.826,0,6.863,0,7.67v18.568h-4.037v-31.486h6.056l8.88,26.643l0,0l8.881-26.643h6.055v31.486H-90.235z"/>
		<path fill="#FFFFFF" d="M-72.877,651.708h-4.037v-31.486h14.128c5.652,0,9.285,3.633,9.285,8.881c0,4.441-2.422,9.285-9.285,9.285
			h-9.688v13.32H-72.877z M-72.877,634.755h8.477c3.633,0,6.459-1.211,6.459-5.652c0-4.037-2.826-5.248-6.056-5.248h-8.477v10.9
			H-72.877z"/>
		<path fill="#FFFFFF" d="M-46.639,642.425l-3.229,9.283h-4.44l11.707-31.486h4.844l11.303,31.486h-4.44l-3.229-9.283H-46.639z
			 M-35.335,638.79l-4.441-13.725l0,0l-4.844,13.725H-35.335z"/>
		<path fill="#FFFFFF" d="M0.591,629.909c-1.211-5.65-5.652-6.458-8.881-6.458c-5.652,0-10.092,4.036-10.092,12.515
			c0,7.266,2.422,12.918,10.496,12.918c2.825,0,7.67-1.211,8.881-8.479h4.037c-1.615,11.707-11.303,12.514-13.725,12.514
			c-7.267,0-14.129-4.439-14.129-16.551c0-9.688,5.651-16.146,14.532-16.146c8.074,0,12.111,4.844,12.917,10.092H0.591V629.909z"/>
		<path fill="#FFFFFF" d="M9.472,620.222h25.431v3.633H24.408v27.451h-4.037v-27.451H9.875v-3.633H9.472z"/>
		<path fill="#FFFFFF" d="M59.931,651.708h-4.036v-31.486h21.798v3.633H60.335v9.689h15.339v3.633H60.335v14.531H59.931z"/>
		<path fill="#FFFFFF" d="M97.876,652.517c-11.707,0-15.339-9.689-15.339-16.551c0-6.863,3.633-16.551,15.339-16.551
			c11.707,0,15.34,9.688,15.34,16.551C113.216,642.827,109.583,652.517,97.876,652.517z M97.876,623.048
			c-6.863,0-10.899,5.248-10.899,12.918c0,7.266,4.036,12.918,10.899,12.918c6.863,0,10.9-5.248,10.9-12.918
			C108.776,628.698,104.739,623.048,97.876,623.048z"/>
		<path fill="#FFFFFF" d="M124.922,651.708h-4.037v-31.486h14.533c5.248,0,10.092,1.615,10.092,8.477
			c0,4.441-2.422,6.459-4.441,7.67c1.615,0.809,3.635,1.615,3.635,6.057l0.402,5.65c0,1.615,0.404,2.422,1.615,3.23v0.807h-5.248
			c-0.807-2.018-0.807-6.861-0.807-7.67c0-2.422-0.404-5.652-5.652-5.652h-10.092V651.708z M124.922,634.755h9.688
			c3.23,0,6.458-0.809,6.458-5.248c0-4.845-3.632-5.248-5.65-5.248h-10.496V634.755z"/>
		<path fill="#FFFFFF" d="M158.023,651.708h-4.037v-31.486h4.037v15.34l15.34-15.34h5.652l-12.917,12.514l13.322,18.57h-5.652
			l-10.898-15.744l-4.846,4.844V651.708L158.023,651.708z"/>
		<path fill="#FFFFFF" d="M189.51,648.075h15.742v3.633h-20.183v-31.486h4.037v27.854H189.51z"/>
		<path fill="#FFFFFF" d="M216.557,651.708h-4.037v-31.486h4.037V651.708z"/>
		<path fill="#FFFFFF" d="M230.685,651.708h-4.037v-31.486h21.798v3.633h-17.359v9.689h15.339v3.633h-15.339v14.531H230.685z"/>
		<path fill="#FFFFFF" d="M252.886,620.222h25.433v3.633h-10.496v27.451h-4.037v-27.451h-10.496v-3.633H252.886z"/>
		<path fill="#FFFFFF" d="M317.475,629.507c-0.404-4.845-4.037-6.459-7.67-6.459c-2.826,0-7.266,0.807-7.266,5.65
			c0,2.826,2.018,3.635,3.632,4.037l8.881,2.02c4.037,0.807,7.266,3.229,7.266,8.477c0,7.266-6.861,9.285-12.109,9.285
			c-5.652,0-8.074-1.615-9.285-2.826c-2.826-2.422-3.23-4.844-3.23-8.074h4.037c0,5.652,4.441,7.268,8.479,7.268
			c3.229,0,8.074-0.809,8.074-5.248c0-3.23-1.615-4.441-6.863-5.652l-6.459-1.615c-2.019-0.402-6.863-2.018-6.863-7.266
			c0-4.844,3.23-9.688,10.9-9.688c10.898,0,12.109,6.459,12.109,10.092H317.475z"/>
		<path fill="#FFFFFF" d="M343.713,652.517c-11.705,0-15.338-9.689-15.338-16.551c0-6.863,3.633-16.551,15.338-16.551
			c11.707,0,15.34,9.688,15.34,16.551C358.648,642.827,355.42,652.517,343.713,652.517z M343.713,623.048
			c-6.861,0-10.898,5.248-10.898,12.918c0,7.266,4.037,12.918,10.898,12.918s10.898-5.248,10.898-12.918
			C354.611,628.698,350.172,623.048,343.713,623.048z"/>
		<path fill="#FFFFFF" d="M370.355,648.075H386.1v3.633h-20.186v-31.486h4.037v27.854H370.355z"/>
		<path fill="#FFFFFF" d="M417.184,620.222v20.184c0,6.459-4.037,11.707-12.516,11.707c-8.477,0-12.109-5.248-12.109-11.303v-20.991
			h4.035v19.78c0,6.863,4.037,8.477,8.074,8.477s8.074-1.613,8.074-8.477v-19.78h4.441V620.222z"/>
		<path fill="#FFFFFF" d="M423.236,620.222h25.432v3.633h-10.496v27.451h-4.037v-27.451h-10.494v-3.633H423.236z"/>
		<path fill="#FFFFFF" d="M459.568,651.708h-4.037v-31.486h4.037V651.708z"/>
		<path fill="#FFFFFF" d="M482.98,652.517c-11.707,0-15.34-9.689-15.34-16.551c0-6.863,3.633-16.551,15.34-16.551
			s15.34,9.688,15.34,16.551C497.918,642.827,494.688,652.517,482.98,652.517z M482.98,623.048c-6.861,0-10.898,5.248-10.898,12.918
			c0,7.266,4.037,12.918,10.898,12.918c6.863,0,10.9-5.248,10.9-12.918C493.881,628.698,489.439,623.048,482.98,623.048z"/>
		<path fill="#FFFFFF" d="M526.174,620.222h4.037v31.486h-4.846l-15.742-25.432l0,0v25.432h-4.037v-31.486h4.844l15.744,25.432l0,0
			V620.222z"/>
		<path fill="#FFFFFF" d="M557.66,629.507c-0.404-4.845-4.037-6.459-7.67-6.459c-2.826,0-7.266,0.807-7.266,5.65
			c0,2.826,2.018,3.635,3.633,4.037l8.881,2.02c4.037,0.807,7.266,3.229,7.266,8.477c0,7.266-6.861,9.285-12.109,9.285
			c-5.652,0-8.074-1.615-9.285-2.826c-2.826-2.422-3.23-4.844-3.23-8.074h4.037c0,5.652,4.441,7.268,8.479,7.268
			c3.229,0,8.074-0.809,8.074-5.248c0-3.23-1.615-4.441-6.863-5.652l-6.459-1.615c-2.02-0.402-6.863-2.018-6.863-7.266
			c0-4.844,3.23-9.688,10.9-9.688c10.898,0,12.109,6.459,12.109,10.092H557.66z"/>
	</g>
</g>
</svg>
